<svg width="87" height="75" viewBox="0 0 87 75" fill="none" xmlns="http://www.w3.org/2000/svg">
<path d="M83.1161 66.2414C84.8467 69.5727 82.4257 73.5467 78.6717 73.5467H9.07493C5.13933 73.5467 2.74208 69.2208 4.84597 65.8947C18.2574 44.6926 37.702 14.1904 45.0128 2.72886C45.5886 1.82622 46.5765 1.29346 47.6472 1.29346V1.29346C48.8211 1.29346 49.8871 1.93074 50.4248 2.97437C56.4769 14.7229 72.2692 45.3611 83.1161 66.2414Z" fill="#A34DDD" stroke="#A34DDD"/>
<path d="M52.0377 22.5749C52.169 21.5935 50.947 21.0386 50.2944 21.7832L28.077 47.1352C27.5105 47.7817 27.9695 48.7943 28.8291 48.7943H38.4267C39.035 48.7943 39.5024 49.3329 39.4168 49.9351L37.1902 65.5946C37.0494 66.5848 38.2887 67.1455 38.9396 66.3861L58.8937 43.1032C59.4497 42.4545 58.9887 41.4524 58.1344 41.4524H50.6545C50.0496 41.4524 49.5832 40.9194 49.6634 40.3198L52.0377 22.5749Z" fill="white" stroke="white"/>
</svg>
